<?xml version="1.0" encoding="UTF-8" standalone="no"?>
<!-- Created with Inkscape (http://www.inkscape.org/) -->

<svg
   width="1000.0001"
   height="1000.0001"
   viewBox="0 0 264.58335 264.58335"
   version="1.1"
   id="svg1"
   xmlns="http://www.w3.org/2000/svg"
   xmlns:svg="http://www.w3.org/2000/svg">
  <defs
     id="defs1" />
  <g
     id="layer1">
    <g
       id="g1"
       transform="matrix(1.1618671,0,0,1.1618671,-12.454664,-8.7769112)">
      <text
         xml:space="preserve"
         style="font-style:normal;font-variant:normal;font-weight:bold;font-stretch:normal;font-size:38.7677px;font-family:'Leelawadee UI';-inkscape-font-specification:'Leelawadee UI, Bold';font-variant-ligatures:normal;font-variant-caps:normal;font-variant-numeric:normal;font-variant-east-asian:normal;text-align:start;writing-mode:lr-tb;direction:ltr;text-anchor:start;fill:#0094e0;fill-opacity:1;stroke:#000639;stroke-width:1.05833;stroke-dasharray:none;stroke-opacity:1;paint-order:markers fill stroke"
         x="61.716991"
         y="223.04301"
         id="text1-8-8"><tspan
           id="tspan1-2-0"
           style="font-style:normal;font-variant:normal;font-weight:bold;font-stretch:normal;font-size:38.7677px;font-family:'Leelawadee UI';-inkscape-font-specification:'Leelawadee UI, Bold';font-variant-ligatures:normal;font-variant-caps:normal;font-variant-numeric:normal;font-variant-east-asian:normal;fill:#0094e0;fill-opacity:1;stroke:#000639;stroke-width:1.05833;stroke-dasharray:none;stroke-opacity:1;paint-order:markers fill stroke"
           x="61.716991"
           y="223.04301"><tspan
             style="font-style:normal;font-variant:normal;font-weight:bold;font-stretch:normal;font-size:38.7677px;font-family:'Leelawadee UI';-inkscape-font-specification:'Leelawadee UI, Bold';font-variant-ligatures:normal;font-variant-caps:normal;font-variant-numeric:normal;font-variant-east-asian:normal;fill:#cbdeb1;fill-opacity:1;stroke:#000639;stroke-width:1.05833;stroke-dasharray:none;stroke-opacity:1;paint-order:markers fill stroke"
             id="tspan4-3-8">Bi</tspan><tspan
             style="fill:#08b3a1;fill-opacity:1;stroke:#000639;stroke-width:1.05833;stroke-dasharray:none;stroke-opacity:1;paint-order:markers fill stroke"
             id="tspan20">GSAT</tspan></tspan></text>
      <g
         id="g5"
         style="fill:#000639;fill-opacity:1;stroke:#cbdeb1;stroke-width:1.05833;stroke-dasharray:none;stroke-opacity:1"
         transform="translate(-190.46876,10.63169)">
        <path
           style="baseline-shift:baseline;display:inline;overflow:visible;fill:#000639;fill-opacity:1;stroke:#cbdeb1;stroke-width:1.05833;stroke-dasharray:none;stroke-opacity:1;enable-background:accumulate;stop-color:#000000;stop-opacity:1"
           d="M 280.17338,12.927806 C 261.36635,18.72326 248.67639,31.51033 248.67639,55.504632 v 12.319532 c 0,31.13743 14.6528,30.09162 16.67161,57.124836 1.78566,23.91123 16.69573,37.45737 35.48517,43.31103 4.71329,1.46837 24.71471,2.63996 40.83658,0 21.08962,-3.45346 35.44292,-17.86841 35.48518,-43.31103 0.0431,-26.025626 -12.12528,-24.78869 -15.94653,-49.048746 -0.97739,-6.20523 1.23531,-17.21754 -1.45025,-29.940092 -3.11845,-14.773364 -13.3928,-29.209607 -28.95903,-32.298166 -12.77395,-2.53453 -42.28683,-3.303855 -50.62574,-0.73419 z"
           id="path4" />
        <path
           style="baseline-shift:baseline;display:inline;overflow:visible;fill:#000639;fill-opacity:1;stroke:#cbdeb1;stroke-width:1.05833;stroke-dasharray:none;stroke-opacity:1;enable-background:accumulate;stop-color:#000000;stop-opacity:1"
           d="m 303.87305,8.7363281 c -10.12779,-0.1900117 -19.39856,0.096702 -24.47852,1.6621099 -9.76682,3.00968 -18.1618,7.914279 -24.08984,15.341796 -5.92804,7.427518 -9.27344,17.300084 -9.27344,29.763672 v 12.320313 c 0,15.983745 3.94811,24.292464 7.91406,31.392578 3.96596,7.100113 7.78986,12.889673 8.76367,25.929683 1.86159,24.92798 17.82125,39.55846 37.33789,45.63868 3.18058,0.99087 9.14484,1.51129 16.875,1.66015 7.73017,0.14887 16.88105,-0.21595 25.17579,-1.57422 11.0297,-1.80613 20.52313,-6.54479 27.21093,-14.29101 6.68781,-7.74623 10.47024,-18.40893 10.49219,-31.62695 0.0222,-13.4251 -3.30618,-20.43893 -6.88867,-26.531255 -3.58249,-6.092327 -7.24746,-11.236793 -9.08984,-22.933594 -0.80704,-5.123686 1.33533,-16.762427 -1.47461,-30.074219 C 359.05859,29.83243 348.20647,14.41802 331.31445,11.066406 324.59606,9.7333833 314.00083,8.9263398 303.87305,8.7363281 Z m -0.0996,5.2890629 c 9.90687,0.185867 20.45616,1.030914 26.51172,2.232421 14.24044,2.825505 23.93693,16.282951 26.88476,30.248047 2.56118,12.133313 0.27804,22.519867 1.42578,29.806641 1.97887,12.563255 6.30767,18.93039 9.75391,24.79102 3.44624,5.86062 6.18102,11.24127 6.16016,23.84179 -0.0203,12.2246 -3.43522,21.49051 -9.20704,28.17578 -5.77181,6.68527 -14.00063,10.88002 -24.06054,12.52735 -7.82714,1.28169 -16.73942,1.65184 -24.21875,1.50781 -7.47934,-0.14403 -13.86963,-0.94438 -15.40235,-1.42188 -18.06223,-5.6271 -31.92503,-18.08793 -33.63476,-40.98242 -1.045,-13.9932 -5.55673,-21.19754 -9.42188,-28.117184 -3.86514,-6.919643 -7.24218,-13.656862 -7.24218,-28.810547 V 55.503906 c 0,-11.530713 2.99848,-20.047481 8.11718,-26.460937 5.1187,-6.413457 12.47347,-10.800165 21.51367,-13.585938 3.25896,-1.004258 12.91345,-1.617507 22.82032,-1.43164 z"
           id="path5" />
      </g>
      <g
         id="g8"
         transform="translate(-6.615913,-0.11858)"
         style="stroke:#cbdeb1;stroke-opacity:1">
        <path
           style="fill:#d45500;stroke:#cbdeb1;stroke-width:4.31621;stroke-linecap:round;stroke-linejoin:bevel;stroke-dasharray:none;stroke-opacity:1"
           d="M 128.00489,52.419327 V 152.35717"
           id="path6" />
        <path
           style="fill:none;stroke:#cbdeb1;stroke-width:4.23333;stroke-linecap:round;stroke-linejoin:round;stroke-dasharray:none;stroke-opacity:1"
           d="M 89.028314,51.155755 V 83.87269 l 19.799176,12.76096"
           id="path7" />
        <path
           style="fill:none;stroke:#cbdeb1;stroke-width:4.06534;stroke-linecap:round;stroke-linejoin:round;stroke-dasharray:none;stroke-opacity:1"
           d="m 140.88121,102.9285 26.59409,14.96333 v 36.53894"
           id="path8" />
      </g>
      <g
         id="g11"
         transform="translate(-6.615913,-0.11858)"
         style="fill:#cbdeb1;fill-opacity:1">
        <circle
           style="fill:#cbdeb1;fill-opacity:1;stroke:none;stroke-width:12.372;stroke-linecap:round;stroke-linejoin:bevel;stroke-dasharray:none"
           id="circle8"
           cx="167.50298"
           cy="156.97217"
           r="6.4940605" />
        <circle
           style="fill:#cbdeb1;fill-opacity:1;stroke:none;stroke-width:12.372;stroke-linecap:round;stroke-linejoin:bevel;stroke-dasharray:none"
           id="circle9"
           cx="128.0347"
           cy="45.994602"
           r="6.4940605" />
        <circle
           style="fill:#cbdeb1;fill-opacity:1;stroke:none;stroke-width:12.3719;stroke-linecap:round;stroke-linejoin:bevel;stroke-dasharray:none"
           id="circle10"
           cx="89.140617"
           cy="45.994602"
           r="6.4940605" />
        <circle
           style="fill:#cbdeb1;fill-opacity:1;stroke:none;stroke-width:12.372;stroke-linecap:round;stroke-linejoin:bevel;stroke-dasharray:none"
           id="circle11"
           cx="128.00493"
           cy="156.97217"
           r="6.4940605" />
      </g>
      <g
         id="g15"
         transform="translate(-6.615913,-0.11858)"
         style="fill:#08b3a1;fill-opacity:1">
        <circle
           style="fill:#08b3a1;fill-opacity:1;stroke:none;stroke-width:6.41182;stroke-linecap:round;stroke-linejoin:bevel;stroke-dasharray:none"
           id="circle12"
           cx="167.50298"
           cy="156.97217"
           r="3.3655987" />
        <circle
           style="fill:#08b3a1;fill-opacity:1;stroke:none;stroke-width:6.41182;stroke-linecap:round;stroke-linejoin:bevel;stroke-dasharray:none"
           id="circle13"
           cx="89.140617"
           cy="45.994602"
           r="3.3655987" />
        <circle
           style="fill:#08b3a1;fill-opacity:1;stroke:none;stroke-width:6.41182;stroke-linecap:round;stroke-linejoin:bevel;stroke-dasharray:none"
           id="circle14"
           cx="128.0347"
           cy="45.994602"
           r="3.3655987" />
        <circle
           style="fill:#08b3a1;fill-opacity:1;stroke:none;stroke-width:6.41182;stroke-linecap:round;stroke-linejoin:bevel;stroke-dasharray:none"
           id="circle15"
           cx="128.00493"
           cy="156.97217"
           r="3.3655987" />
      </g>
      <rect
         style="fill:#cbdeb1;fill-opacity:1;stroke:#08b3a1;stroke-width:4.23333;stroke-linecap:round;stroke-linejoin:round;stroke-dasharray:none;stroke-opacity:1"
         id="rect15"
         width="56.822952"
         height="12.277384"
         x="92.97747"
         y="94.458092"
         ry="6.1386919" />
      <g
         id="g20"
         transform="translate(-6.615913,-0.11858)"
         style="stroke:#08b3a1;stroke-opacity:1">
        <rect
           style="fill:none;fill-opacity:1;stroke:#08b3a1;stroke-width:4.23333;stroke-linecap:round;stroke-linejoin:round;stroke-dasharray:none;stroke-opacity:1"
           id="rect16"
           width="56.822952"
           height="12.277384"
           x="99.593422"
           y="128.33884"
           ry="6.1386919" />
        <rect
           style="fill:none;fill-opacity:1;stroke:#08b3a1;stroke-width:4.23333;stroke-linecap:round;stroke-linejoin:round;stroke-dasharray:none;stroke-opacity:1"
           id="rect17"
           width="56.822952"
           height="12.277384"
           x="99.593422"
           y="63.606174"
           ry="6.1386919" />
        <path
           style="fill:none;stroke:#08b3a1;stroke-width:4.23333;stroke-linecap:butt;stroke-linejoin:bevel;stroke-dasharray:none;stroke-opacity:1;paint-order:normal"
           d="m 122.96324,63.405163 c 0,0 -16.2858,14.154067 -1.22919,24.097307 4.49616,2.96922 13.6013,9.12474 16.6573,11.819545 7.43897,6.559815 2.53053,17.673985 -6.73544,24.516345 -4.18918,3.09346 -7.00923,4.10796 -10.44467,7.38785 -4.04908,3.86575 -6.07762,5.9049 -6.21888,9.2791"
           id="path17" />
        <path
           style="fill:none;stroke:#08b3a1;stroke-width:4.23333;stroke-linecap:butt;stroke-linejoin:bevel;stroke-dasharray:none;stroke-opacity:1"
           d="m 143.27906,63.809504 c 0,0 -3.84352,4.796276 -7.08483,7.609416 -6.91723,6.00348 -15.04206,12.03954 -18.16142,14.99253 -5.94523,5.62819 -4.04255,13.226785 8.09186,21.95228 12.13572,8.72642 13.08657,11.5652 13.08657,11.5652 0,0 12.25508,10.66039 -5.34526,20.66146"
           id="path20" />
      </g>
    </g>
  </g>
</svg>
